<svg width="93" height="18" viewBox="0 0 93 18" fill="none" xmlns="http://www.w3.org/2000/svg">
<path d="M11.4748 5C10.989 2.31534 8.84126 0.730113 6.20774 0.730113C2.85831 0.730113 0.429332 3.3125 0.429332 7.45455C0.429332 11.5966 2.85831 14.179 6.20774 14.179C8.84126 14.179 10.989 12.5938 11.4748 9.90909H9.88956C9.50604 11.7244 7.94638 12.696 6.20774 12.696C3.8299 12.696 1.96342 10.8551 1.96342 7.45455C1.96342 4.05398 3.8299 2.21307 6.20774 2.21307C7.94638 2.21307 9.50604 3.18466 9.88956 5H11.4748ZM17.8205 14.2045C20.4796 14.2045 22.2694 12.1847 22.2694 9.14205C22.2694 6.07386 20.4796 4.05398 17.8205 4.05398C15.1614 4.05398 13.3716 6.07386 13.3716 9.14205C13.3716 12.1847 15.1614 14.2045 17.8205 14.2045ZM17.8205 12.8494C15.8006 12.8494 14.8801 11.1108 14.8801 9.14205C14.8801 7.1733 15.8006 5.40909 17.8205 5.40909C19.8404 5.40909 20.7608 7.1733 20.7608 9.14205C20.7608 11.1108 19.8404 12.8494 17.8205 12.8494ZM25.2928 4.18182H23.5542L26.6735 9.09091L23.5542 14H25.2928L27.6451 10.1903L29.9973 14H31.736L28.5655 9.09091L31.736 4.18182H29.9973L27.6451 8.19602L25.2928 4.18182ZM33.8885 17.6818H35.397V12.4915H35.5249C35.8572 13.0284 36.4964 14.2045 38.3885 14.2045C40.843 14.2045 42.5561 12.2358 42.5561 9.11648C42.5561 6.02273 40.843 4.05398 38.3629 4.05398C36.4453 4.05398 35.8572 5.23011 35.5249 5.74148H35.3459V4.18182H33.8885V17.6818ZM35.3714 9.09091C35.3714 6.89205 36.343 5.40909 38.1839 5.40909C40.1016 5.40909 41.0476 7.01989 41.0476 9.09091C41.0476 11.1875 40.076 12.8494 38.1839 12.8494C36.3686 12.8494 35.3714 11.3153 35.3714 9.09091ZM47.7464 14.2301C49.4595 14.2301 50.3544 13.3097 50.6612 12.6705H50.7379V14H52.2464V7.53125C52.2464 4.41193 49.8686 4.05398 48.6158 4.05398C47.1328 4.05398 45.4453 4.56534 44.6783 6.35511L46.1101 6.86648C46.4425 6.15057 47.2287 5.38352 48.6669 5.38352C50.054 5.38352 50.7379 6.11861 50.7379 7.37784V7.42898C50.7379 8.15767 49.9964 8.09375 48.2067 8.32386C46.3849 8.56037 44.397 8.96307 44.397 11.2131C44.397 13.1307 45.88 14.2301 47.7464 14.2301ZM47.9766 12.875C46.7749 12.875 45.9055 12.3381 45.9055 11.2898C45.9055 10.1392 46.9538 9.78125 48.13 9.62784C48.7692 9.55114 50.4822 9.37216 50.7379 9.06534V10.446C50.7379 11.6733 49.7663 12.875 47.9766 12.875ZM56.5083 4.18182H54.9998V14H56.5083V9.80682H61.2129V14H62.7214V4.18182H61.2129V8.40057H56.5083V4.18182ZM66.9849 11.7756V4.18182H65.4764V14H67.2406L71.9451 6.40625V14H73.4537V4.18182H71.715L66.9849 11.7756ZM74.8807 5.58807H78.1278V14H79.6364V5.58807H82.858V4.18182H74.8807V5.58807ZM86.5669 7.7358V4.18182H85.0584V14H89.1749C91.476 14 92.7289 12.5938 92.7289 10.8295C92.7289 9.03977 91.476 7.7358 89.1749 7.7358H86.5669ZM86.5669 9.14205H89.1749C90.3702 9.14205 91.2203 9.87074 91.2203 10.9062C91.2203 11.897 90.3702 12.5938 89.1749 12.5938H86.5669V9.14205Z" fill="white"/>
</svg>
