<svg width="72" height="14" viewBox="0 0 72 14" fill="none" xmlns="http://www.w3.org/2000/svg">
<path d="M8.75817 4H7.52521C7.4523 3.64536 7.32469 3.33381 7.1424 3.06534C6.96342 2.79688 6.74467 2.5715 6.48615 2.3892C6.23094 2.2036 5.94756 2.06439 5.63601 1.97159C5.32446 1.87879 4.99965 1.83239 4.66158 1.83239C4.0451 1.83239 3.48662 1.98816 2.98615 2.29972C2.48899 2.61127 2.09292 3.07031 1.79794 3.67685C1.50627 4.28338 1.36044 5.02746 1.36044 5.90909C1.36044 6.79072 1.50627 7.5348 1.79794 8.14134C2.09292 8.74787 2.48899 9.20691 2.98615 9.51847C3.48662 9.83002 4.0451 9.9858 4.66158 9.9858C4.99965 9.9858 5.32446 9.93939 5.63601 9.84659C5.94756 9.75379 6.23094 9.61624 6.48615 9.43395C6.74467 9.24834 6.96342 9.02131 7.1424 8.75284C7.32469 8.48106 7.4523 8.16951 7.52521 7.81818H8.75817C8.66537 8.33854 8.49633 8.80421 8.25107 9.2152C8.0058 9.62618 7.70088 9.97585 7.33629 10.2642C6.97171 10.5492 6.56238 10.7663 6.10831 10.9155C5.65755 11.0646 5.17531 11.1392 4.66158 11.1392C3.79321 11.1392 3.02095 10.9271 2.34482 10.5028C1.66868 10.0786 1.13672 9.47538 0.748935 8.69318C0.361151 7.91098 0.167259 6.98295 0.167259 5.90909C0.167259 4.83523 0.361151 3.9072 0.748935 3.125C1.13672 2.3428 1.66868 1.73958 2.34482 1.31534C3.02095 0.891098 3.79321 0.678977 4.66158 0.678977C5.17531 0.678977 5.65755 0.753551 6.10831 0.902699C6.56238 1.05185 6.97171 1.2706 7.33629 1.55895C7.70088 1.84399 8.0058 2.192 8.25107 2.60298C8.49633 3.01065 8.66537 3.47633 8.75817 4ZM13.6937 11.1591C13.0043 11.1591 12.3994 10.995 11.8791 10.6669C11.362 10.3388 10.9577 9.87973 10.666 9.28977C10.3777 8.69981 10.2335 8.01042 10.2335 7.22159C10.2335 6.42614 10.3777 5.73177 10.666 5.13849C10.9577 4.54522 11.362 4.08452 11.8791 3.75639C12.3994 3.42827 13.0043 3.2642 13.6937 3.2642C14.3831 3.2642 14.9863 3.42827 15.5034 3.75639C16.0237 4.08452 16.4281 4.54522 16.7164 5.13849C17.0081 5.73177 17.1539 6.42614 17.1539 7.22159C17.1539 8.01042 17.0081 8.69981 16.7164 9.28977C16.4281 9.87973 16.0237 10.3388 15.5034 10.6669C14.9863 10.995 14.3831 11.1591 13.6937 11.1591ZM13.6937 10.1051C14.2174 10.1051 14.6483 9.97088 14.9863 9.70241C15.3244 9.43395 15.5746 9.08097 15.737 8.64347C15.8994 8.20597 15.9806 7.73201 15.9806 7.22159C15.9806 6.71117 15.8994 6.23556 15.737 5.79474C15.5746 5.35393 15.3244 4.99763 14.9863 4.72585C14.6483 4.45407 14.2174 4.31818 13.6937 4.31818C13.17 4.31818 12.7392 4.45407 12.4011 4.72585C12.063 4.99763 11.8128 5.35393 11.6504 5.79474C11.488 6.23556 11.4068 6.71117 11.4068 7.22159C11.4068 7.73201 11.488 8.20597 11.6504 8.64347C11.8128 9.08097 12.063 9.43395 12.4011 9.70241C12.7392 9.97088 13.17 10.1051 13.6937 10.1051ZM19.5055 3.36364L21.335 6.4858L23.1646 3.36364H24.5169L22.051 7.18182L24.5169 11H23.1646L21.335 8.03693L19.5055 11H18.1532L20.5794 7.18182L18.1532 3.36364H19.5055ZM26.1911 13.8636V3.36364H27.3246V4.5767H27.4638C27.55 4.44413 27.6693 4.27509 27.8217 4.0696C27.9775 3.8608 28.1996 3.67519 28.4879 3.51278C28.7796 3.34706 29.174 3.2642 29.6712 3.2642C30.3142 3.2642 30.8809 3.42495 31.3714 3.74645C31.862 4.06794 32.2448 4.52367 32.5199 5.11364C32.795 5.7036 32.9325 6.39962 32.9325 7.2017C32.9325 8.01042 32.795 8.71141 32.5199 9.30469C32.2448 9.89465 31.8636 10.352 31.3764 10.6768C30.8892 10.9983 30.3274 11.1591 29.6911 11.1591C29.2005 11.1591 28.8078 11.0779 28.5128 10.9155C28.2178 10.7498 27.9908 10.5625 27.8317 10.3537C27.6726 10.1416 27.55 9.96591 27.4638 9.8267H27.3643V13.8636H26.1911ZM27.3445 7.18182C27.3445 7.75852 27.429 8.26728 27.598 8.7081C27.767 9.1456 28.014 9.48864 28.3388 9.73722C28.6636 9.98248 29.0613 10.1051 29.532 10.1051C30.0225 10.1051 30.4318 9.97585 30.7599 9.71733C31.0914 9.45549 31.34 9.10417 31.5057 8.66335C31.6747 8.21922 31.7592 7.72538 31.7592 7.18182C31.7592 6.64489 31.6764 6.16098 31.5107 5.73011C31.3482 5.29593 31.1013 4.95289 30.7699 4.70099C30.4418 4.44579 30.0291 4.31818 29.532 4.31818C29.0547 4.31818 28.6536 4.43916 28.3288 4.68111C28.004 4.91974 27.7588 5.2545 27.593 5.68537C27.4273 6.11293 27.3445 6.61174 27.3445 7.18182ZM36.9695 11.179C36.4856 11.179 36.0464 11.0878 35.652 10.9055C35.2576 10.7199 34.9444 10.4531 34.7124 10.1051C34.4804 9.75379 34.3643 9.32955 34.3643 8.83239C34.3643 8.39489 34.4505 8.04025 34.6229 7.76847C34.7952 7.49337 35.0256 7.27794 35.3139 7.12216C35.6023 6.96638 35.9205 6.85038 36.2685 6.77415C36.6198 6.6946 36.9728 6.63163 37.3274 6.58523C37.7914 6.52557 38.1676 6.48082 38.456 6.45099C38.7476 6.41785 38.9598 6.36316 39.0923 6.28693C39.2282 6.2107 39.2962 6.07812 39.2962 5.8892V5.84943C39.2962 5.3589 39.1619 4.97775 38.8935 4.70597C38.6283 4.43419 38.2256 4.2983 37.6854 4.2983C37.1252 4.2983 36.6861 4.42093 36.3679 4.66619C36.0497 4.91146 35.826 5.1733 35.6967 5.4517L34.5831 5.05398C34.782 4.58996 35.0471 4.22869 35.3786 3.97017C35.7133 3.70833 36.0779 3.52604 36.4723 3.4233C36.87 3.31723 37.2611 3.2642 37.6456 3.2642C37.8909 3.2642 38.1726 3.29403 38.4908 3.35369C38.8123 3.41004 39.1222 3.5277 39.4205 3.70668C39.7221 3.88565 39.9723 4.15578 40.1712 4.51705C40.37 4.87831 40.4695 5.36222 40.4695 5.96875V11H39.2962V9.96591H39.2365C39.157 10.1316 39.0244 10.3089 38.8388 10.4979C38.6532 10.6868 38.4063 10.8475 38.098 10.9801C37.7898 11.1127 37.4136 11.179 36.9695 11.179ZM37.1484 10.125C37.6125 10.125 38.0036 10.0339 38.3217 9.85156C38.6432 9.66927 38.8852 9.43395 39.0476 9.1456C39.2133 8.85724 39.2962 8.55398 39.2962 8.2358V7.16193C39.2464 7.22159 39.1371 7.27628 38.968 7.32599C38.8023 7.3724 38.6101 7.41383 38.3913 7.45028C38.1759 7.48343 37.9654 7.51326 37.7599 7.53977C37.5578 7.56297 37.3937 7.58286 37.2678 7.59943C36.9628 7.6392 36.6778 7.70384 36.4126 7.79332C36.1508 7.8795 35.9387 8.01042 35.7763 8.18608C35.6172 8.35843 35.5376 8.59375 35.5376 8.89205C35.5376 9.29972 35.6884 9.60795 35.9901 9.81676C36.295 10.0223 36.6811 10.125 37.1484 10.125ZM47.7218 6.64489V7.73864H43.5059V6.64489H47.7218ZM43.7843 3.36364V11H42.611V3.36364H43.7843ZM48.6167 3.36364V11H47.4434V3.36364H48.6167ZM51.9327 9.26989L55.6117 3.36364H56.964V11H55.7907V5.09375L52.1316 11H50.7594V3.36364H51.9327V9.26989ZM58.0739 4.45739V3.36364H64.2784V4.45739H61.7727V11H60.5994V4.45739H58.0739ZM67.0041 6.12784H69.1916C70.0865 6.12784 70.7709 6.35488 71.2449 6.80895C71.7188 7.26302 71.9558 7.83807 71.9558 8.53409C71.9558 8.99148 71.8497 9.40743 71.6376 9.78196C71.4255 10.1532 71.1139 10.4498 70.7029 10.6719C70.292 10.8906 69.7882 11 69.1916 11H65.9899V3.36364H67.1632V9.90625H69.1916C69.6556 9.90625 70.0368 9.78362 70.335 9.53835C70.6333 9.29309 70.7825 8.97822 70.7825 8.59375C70.7825 8.18939 70.6333 7.85961 70.335 7.6044C70.0368 7.34919 69.6556 7.22159 69.1916 7.22159H67.0041V6.12784Z" fill="white"/>
</svg>
